<svg width="49" height="72" viewBox="0 0 49 72" fill="none" xmlns="http://www.w3.org/2000/svg">
<g clip-path="url(#clip0_127_207)">
<path d="M15.4491 31.1829V54.1763C15.4491 55.6723 16.6759 56.8892 18.1848 56.8892H36.0146C37.5231 56.8892 38.7502 55.6723 38.7502 54.1763V31.1829H15.4491ZM36.0146 59.7836H18.1848C15.0669 59.7836 12.5303 57.2681 12.5303 54.1763V29.7359C12.5303 28.9366 13.1838 28.2885 13.9899 28.2885H40.2095C41.0155 28.2885 41.6687 28.9366 41.6687 29.7359V54.1763C41.6687 57.2681 39.1324 59.7836 36.0146 59.7836Z" fill="#4C5558"/>
<path d="M13.1327 28.2885H41.066V27.6992C41.066 26.5615 40.1329 25.6358 38.9856 25.6358H15.2131C14.0658 25.6358 13.1327 26.5615 13.1327 27.6992V28.2885ZM42.5259 31.1829H11.6731C10.8674 31.1829 10.2139 30.5349 10.2139 29.7359V27.6992C10.2139 24.9656 12.4564 22.7418 15.2131 22.7418H38.9856C41.7426 22.7418 43.9852 24.9656 43.9852 27.6992V29.7359C43.9852 30.5349 43.3313 31.1829 42.5259 31.1829Z" fill="#4C5558"/>
<path d="M23.2309 22.7418H30.9678C30.9138 21.8916 30.1986 21.2162 29.3282 21.2162H24.8705C24.0001 21.2162 23.2849 21.8916 23.2309 22.7418ZM32.4305 25.6359H21.7678C20.9621 25.6359 20.3086 24.9881 20.3086 24.1888V22.8456C20.3086 20.3514 22.3553 18.3215 24.8705 18.3215H29.3282C31.8435 18.3215 33.8901 20.3514 33.8901 22.8456V24.1888C33.8901 24.9881 33.2366 25.6359 32.4305 25.6359Z" fill="#4C5558"/>
<path d="M21.1419 52.3985C20.3361 52.3985 19.6826 51.7504 19.6826 50.9514V37.5969C19.6826 36.7976 20.3361 36.1495 21.1419 36.1495C21.9479 36.1495 22.6011 36.7976 22.6011 37.5969V50.9514C22.6011 51.7504 21.9479 52.3985 21.1419 52.3985Z" fill="#4C5558"/>
<path d="M27.0994 52.3985C26.2933 52.3985 25.6401 51.7504 25.6401 50.9514V37.5969C25.6401 36.7976 26.2933 36.1495 27.0994 36.1495C27.9054 36.1495 28.5586 36.7976 28.5586 37.5969V50.9514C28.5586 51.7504 27.9054 52.3985 27.0994 52.3985Z" fill="#4C5558"/>
<path d="M33.0572 52.3985C32.2512 52.3985 31.5977 51.7504 31.5977 50.9514V37.5969C31.5977 36.7976 32.2512 36.1495 33.0572 36.1495C33.8626 36.1495 34.5165 36.7976 34.5165 37.5969V50.9514C34.5165 51.7504 33.8626 52.3985 33.0572 52.3985Z" fill="#4C5558"/>
</g>
<defs>
<clipPath id="clip0_127_207">
<rect width="49" height="72" fill="white"/>
</clipPath>
</defs>
</svg>
